<svg id="visual" viewBox="0 0 900 600" width="900" height="600" xmlns="http://www.w3.org/2000/svg" xmlns:xlink="http://www.w3.org/1999/xlink" version="1.1"><rect x="0" y="0" width="900" height="600" fill="#FF0066"></rect><g transform="translate(457.01544864200946 312.23670891826555)"><path d="M182.5 -244.5C235.3 -212.8 276 -157.9 280.2 -101.3C284.4 -44.8 252 13.3 236 81C219.9 148.7 220.2 226 183.6 247.3C146.9 268.6 73.5 233.8 18.4 208.5C-36.7 183.2 -73.5 167.5 -128.8 152.3C-184.1 137.1 -258 122.5 -283.6 82.9C-309.1 43.4 -286.3 -21.1 -255.7 -73.2C-225.2 -125.3 -187 -165 -143 -199.6C-99.1 -234.1 -49.6 -263.6 7.6 -274.1C64.9 -284.6 129.7 -276.2 182.5 -244.5" fill="#BB004B"></path></g></svg>