<svg id="visual" viewBox="0 0 900 600" width="900" height="600" xmlns="http://www.w3.org/2000/svg" xmlns:xlink="http://www.w3.org/1999/xlink" version="1.1"><g stroke-width="1" stroke-linejoin="bevel"><path d="M421 281L405.7 257L381.7 279Z" fill="#2c0b17" stroke="#2c0b17"></path><path d="M381.7 279L353.7 329L421 281Z" fill="#6c1234" stroke="#6c1234"></path><path d="M475.3 214L432 200L405.7 257Z" fill="#1c000a" stroke="#1c000a"></path><path d="M405.7 257L374.7 197L381.7 279Z" fill="#410e21" stroke="#410e21"></path><path d="M432 200L374.7 197L405.7 257Z" fill="#e5075f" stroke="#e5075f"></path><path d="M381.7 279L319.4 321L353.7 329Z" fill="#9b1246" stroke="#9b1246"></path><path d="M353.7 329L456 351L421 281Z" fill="#2c0b17" stroke="#2c0b17"></path><path d="M421 281L475.3 214L405.7 257Z" fill="#6c1234" stroke="#6c1234"></path><path d="M293.1 282L319.4 321L381.7 279Z" fill="#56102b" stroke="#56102b"></path><path d="M374.7 197L324.4 219L381.7 279Z" fill="#ff0066" stroke="#ff0066"></path><path d="M509.3 319L475.3 214L421 281Z" fill="#b3104f" stroke="#b3104f"></path><path d="M324.4 219L293.1 282L381.7 279Z" fill="#b3104f" stroke="#b3104f"></path><path d="M475.3 214L486 201L432 200Z" fill="#ff0066" stroke="#ff0066"></path><path d="M432 200L383.7 149L374.7 197Z" fill="#b3104f" stroke="#b3104f"></path><path d="M533.3 209L486 201L475.3 214Z" fill="#1c000a" stroke="#1c000a"></path><path d="M456 351L509.3 319L421 281Z" fill="#56102b" stroke="#56102b"></path><path d="M486 201L444 159L432 200Z" fill="#9b1246" stroke="#9b1246"></path><path d="M374.7 197L351.4 162L324.4 219Z" fill="#9b1246" stroke="#9b1246"></path><path d="M383.7 149L351.4 162L374.7 197Z" fill="#b3104f" stroke="#b3104f"></path><path d="M324.4 219L230.1 245L293.1 282Z" fill="#9b1246" stroke="#9b1246"></path><path d="M444 159L383.7 149L432 200Z" fill="#6c1234" stroke="#6c1234"></path><path d="M300.4 393L419 405L353.7 329Z" fill="#9b1246" stroke="#9b1246"></path><path d="M353.7 329L419 405L456 351Z" fill="#1c000a" stroke="#1c000a"></path><path d="M456 351L495.3 372L509.3 319Z" fill="#83123d" stroke="#83123d"></path><path d="M419 405L495.3 372L456 351Z" fill="#56102b" stroke="#56102b"></path><path d="M383.7 149L327.4 150L351.4 162Z" fill="#9b1246" stroke="#9b1246"></path><path d="M351.4 162L327.4 150L324.4 219Z" fill="#b3104f" stroke="#b3104f"></path><path d="M509.3 319L533.3 209L475.3 214Z" fill="#e5075f" stroke="#e5075f"></path><path d="M486 201L480.3 134L444 159Z" fill="#9b1246" stroke="#9b1246"></path><path d="M273.1 379L300.4 393L319.4 321Z" fill="#1c000a" stroke="#1c000a"></path><path d="M319.4 321L300.4 393L353.7 329Z" fill="#ff0066" stroke="#ff0066"></path><path d="M419 405L514.3 386L495.3 372Z" fill="#1c000a" stroke="#1c000a"></path><path d="M495.3 372L514.3 386L509.3 319Z" fill="#56102b" stroke="#56102b"></path><path d="M509.3 319L591.6 262L533.3 209Z" fill="#e5075f" stroke="#e5075f"></path><path d="M533.3 209L480.3 134L486 201Z" fill="#6c1234" stroke="#6c1234"></path><path d="M444 159L463 84L383.7 149Z" fill="#2c0b17" stroke="#2c0b17"></path><path d="M348.7 59L275.1 136L327.4 150Z" fill="#410e21" stroke="#410e21"></path><path d="M293.1 282L273.1 379L319.4 321Z" fill="#b3104f" stroke="#b3104f"></path><path d="M275.1 136L230.1 245L324.4 219Z" fill="#cc0d57" stroke="#cc0d57"></path><path d="M293.1 282L223.9 369L273.1 379Z" fill="#410e21" stroke="#410e21"></path><path d="M329.4 449L410.7 452L419 405Z" fill="#1c000a" stroke="#1c000a"></path><path d="M419 405L410.7 452L514.3 386Z" fill="#56102b" stroke="#56102b"></path><path d="M329.4 449L419 405L300.4 393Z" fill="#2c0b17" stroke="#2c0b17"></path><path d="M300.4 483L329.4 449L300.4 393Z" fill="#9b1246" stroke="#9b1246"></path><path d="M348.7 59L327.4 150L383.7 149Z" fill="#cc0d57" stroke="#cc0d57"></path><path d="M327.4 150L275.1 136L324.4 219Z" fill="#6c1234" stroke="#6c1234"></path><path d="M612.6 333L591.6 262L509.3 319Z" fill="#83123d" stroke="#83123d"></path><path d="M533.3 209L575.6 189L480.3 134Z" fill="#56102b" stroke="#56102b"></path><path d="M591.6 262L575.6 189L533.3 209Z" fill="#cc0d57" stroke="#cc0d57"></path><path d="M571.6 391L561.6 388L581.6 449Z" fill="#b3104f" stroke="#b3104f"></path><path d="M514.3 386L561.6 388L509.3 319Z" fill="#410e21" stroke="#410e21"></path><path d="M177.9 325L223.9 369L293.1 282Z" fill="#410e21" stroke="#410e21"></path><path d="M273.1 379L230.1 448L300.4 393Z" fill="#e5075f" stroke="#e5075f"></path><path d="M521.3 55L463 84L480.3 134Z" fill="#cc0d57" stroke="#cc0d57"></path><path d="M480.3 134L463 84L444 159Z" fill="#cc0d57" stroke="#cc0d57"></path><path d="M329.4 449L375.7 478L410.7 452Z" fill="#410e21" stroke="#410e21"></path><path d="M539.3 468L561.6 388L514.3 386Z" fill="#6c1234" stroke="#6c1234"></path><path d="M539.3 468L514.3 386L410.7 452Z" fill="#ff0066" stroke="#ff0066"></path><path d="M561.6 388L612.6 333L509.3 319Z" fill="#1c000a" stroke="#1c000a"></path><path d="M223.9 369L225.1 397L273.1 379Z" fill="#cc0d57" stroke="#cc0d57"></path><path d="M329.4 449L300.4 483L375.7 478Z" fill="#2c0b17" stroke="#2c0b17"></path><path d="M571.6 391L612.6 333L561.6 388Z" fill="#e5075f" stroke="#e5075f"></path><path d="M591.6 262L629.9 213L575.6 189Z" fill="#83123d" stroke="#83123d"></path><path d="M375.7 478L423 494L410.7 452Z" fill="#ff0066" stroke="#ff0066"></path><path d="M220.1 149L194.9 202L230.1 245Z" fill="#2c0b17" stroke="#2c0b17"></path><path d="M230.1 245L177.9 325L293.1 282Z" fill="#1c000a" stroke="#1c000a"></path><path d="M223.9 369L180.9 404L225.1 397Z" fill="#b3104f" stroke="#b3104f"></path><path d="M265.1 75L220.1 149L275.1 136Z" fill="#9b1246" stroke="#9b1246"></path><path d="M275.1 136L220.1 149L230.1 245Z" fill="#9b1246" stroke="#9b1246"></path><path d="M463 84L348.7 59L383.7 149Z" fill="#cc0d57" stroke="#cc0d57"></path><path d="M194.9 202L177.9 325L230.1 245Z" fill="#1c000a" stroke="#1c000a"></path><path d="M230.1 448L300.4 483L300.4 393Z" fill="#6c1234" stroke="#6c1234"></path><path d="M408.7 546L461 537L423 494Z" fill="#410e21" stroke="#410e21"></path><path d="M423 494L539.3 468L410.7 452Z" fill="#1c000a" stroke="#1c000a"></path><path d="M624.9 379L629.9 338L612.6 333Z" fill="#83123d" stroke="#83123d"></path><path d="M624.9 379L612.6 333L571.6 391Z" fill="#56102b" stroke="#56102b"></path><path d="M612.6 333L629.9 338L591.6 262Z" fill="#cc0d57" stroke="#cc0d57"></path><path d="M705.1 242L629.9 213L591.6 262Z" fill="#56102b" stroke="#56102b"></path><path d="M595.6 88L521.3 55L480.3 134Z" fill="#b3104f" stroke="#b3104f"></path><path d="M180.9 404L230.1 448L225.1 397Z" fill="#cc0d57" stroke="#cc0d57"></path><path d="M225.1 397L230.1 448L273.1 379Z" fill="#56102b" stroke="#56102b"></path><path d="M348.7 59L265.1 75L275.1 136Z" fill="#2c0b17" stroke="#2c0b17"></path><path d="M581.6 449L624.9 379L571.6 391Z" fill="#9b1246" stroke="#9b1246"></path><path d="M678.1 207L638.9 201L629.9 213Z" fill="#83123d" stroke="#83123d"></path><path d="M629.9 213L638.9 201L575.6 189Z" fill="#cc0d57" stroke="#cc0d57"></path><path d="M539.3 468L581.6 449L561.6 388Z" fill="#56102b" stroke="#56102b"></path><path d="M595.6 88L480.3 134L575.6 189Z" fill="#2c0b17" stroke="#2c0b17"></path><path d="M463 84L392.7 0L348.7 59Z" fill="#cc0d57" stroke="#cc0d57"></path><path d="M177.9 325L180.9 404L223.9 369Z" fill="#1c000a" stroke="#1c000a"></path><path d="M220.1 149L157.9 182L194.9 202Z" fill="#83123d" stroke="#83123d"></path><path d="M100.6 242L114.6 326L177.9 325Z" fill="#56102b" stroke="#56102b"></path><path d="M177.9 325L151.6 394L180.9 404Z" fill="#56102b" stroke="#56102b"></path><path d="M155.6 180L157.9 182L220.1 149Z" fill="#ff0066" stroke="#ff0066"></path><path d="M329.4 0L309.4 30L348.7 59Z" fill="#6c1234" stroke="#6c1234"></path><path d="M348.7 59L309.4 30L265.1 75Z" fill="#b3104f" stroke="#b3104f"></path><path d="M192.9 88L155.6 180L220.1 149Z" fill="#cc0d57" stroke="#cc0d57"></path><path d="M192.9 88L220.1 149L265.1 75Z" fill="#1c000a" stroke="#1c000a"></path><path d="M100.6 242L177.9 325L194.9 202Z" fill="#ff0066" stroke="#ff0066"></path><path d="M408.7 546L423 494L375.7 478Z" fill="#1c000a" stroke="#1c000a"></path><path d="M423 494L461 537L539.3 468Z" fill="#83123d" stroke="#83123d"></path><path d="M539.3 468L592.6 509L581.6 449Z" fill="#410e21" stroke="#410e21"></path><path d="M293.4 536L408.7 546L375.7 478Z" fill="#2c0b17" stroke="#2c0b17"></path><path d="M293.4 536L375.7 478L300.4 483Z" fill="#ff0066" stroke="#ff0066"></path><path d="M638.9 201L595.6 88L575.6 189Z" fill="#ff0066" stroke="#ff0066"></path><path d="M180.9 404L164.9 458L230.1 448Z" fill="#83123d" stroke="#83123d"></path><path d="M114.6 326L151.6 394L177.9 325Z" fill="#b3104f" stroke="#b3104f"></path><path d="M455 0L392.7 0L463 84Z" fill="#83123d" stroke="#83123d"></path><path d="M268.1 573L293.4 536L230.1 448Z" fill="#1c000a" stroke="#1c000a"></path><path d="M230.1 448L293.4 536L300.4 483Z" fill="#9b1246" stroke="#9b1246"></path><path d="M202.9 46L192.9 88L265.1 75Z" fill="#83123d" stroke="#83123d"></path><path d="M521.3 55L455 0L463 84Z" fill="#cc0d57" stroke="#cc0d57"></path><path d="M500.3 0L455 0L521.3 55Z" fill="#56102b" stroke="#56102b"></path><path d="M624.9 379L680.1 325L629.9 338Z" fill="#83123d" stroke="#83123d"></path><path d="M629.9 338L680.1 325L591.6 262Z" fill="#ff0066" stroke="#ff0066"></path><path d="M722.1 334L680.1 325L706.1 397Z" fill="#6c1234" stroke="#6c1234"></path><path d="M705.1 242L678.1 207L629.9 213Z" fill="#9b1246" stroke="#9b1246"></path><path d="M638.9 201L647.9 90L595.6 88Z" fill="#9b1246" stroke="#9b1246"></path><path d="M392.7 0L329.4 0L348.7 59Z" fill="#b3104f" stroke="#b3104f"></path><path d="M264.1 0L202.9 46L265.1 75Z" fill="#1c000a" stroke="#1c000a"></path><path d="M461 537L543.3 528L539.3 468Z" fill="#e5075f" stroke="#e5075f"></path><path d="M581.6 449L647.9 449L624.9 379Z" fill="#83123d" stroke="#83123d"></path><path d="M488 600L543.3 528L461 537Z" fill="#410e21" stroke="#410e21"></path><path d="M100.6 242L194.9 202L157.9 182Z" fill="#1c000a" stroke="#1c000a"></path><path d="M565.6 0L500.3 0L521.3 55Z" fill="#410e21" stroke="#410e21"></path><path d="M137.6 485L164.9 458L97.3 484Z" fill="#e5075f" stroke="#e5075f"></path><path d="M151.6 394L164.9 458L180.9 404Z" fill="#cc0d57" stroke="#cc0d57"></path><path d="M592.6 509L647.9 449L581.6 449Z" fill="#56102b" stroke="#56102b"></path><path d="M543.3 528L592.6 509L539.3 468Z" fill="#56102b" stroke="#56102b"></path><path d="M87.3 217L100.6 242L155.6 180Z" fill="#cc0d57" stroke="#cc0d57"></path><path d="M155.6 180L100.6 242L157.9 182Z" fill="#b3104f" stroke="#b3104f"></path><path d="M647.9 90L605.9 52L595.6 88Z" fill="#6c1234" stroke="#6c1234"></path><path d="M595.6 88L585.6 31L521.3 55Z" fill="#b3104f" stroke="#b3104f"></path><path d="M264.1 0L265.1 75L309.4 30Z" fill="#56102b" stroke="#56102b"></path><path d="M75.3 208L87.3 217L155.6 180Z" fill="#6c1234" stroke="#6c1234"></path><path d="M722.1 334L705.1 242L680.1 325Z" fill="#6c1234" stroke="#6c1234"></path><path d="M680.1 325L705.1 242L591.6 262Z" fill="#83123d" stroke="#83123d"></path><path d="M683.1 146L647.9 90L638.9 201Z" fill="#cc0d57" stroke="#cc0d57"></path><path d="M605.9 52L585.6 31L595.6 88Z" fill="#9b1246" stroke="#9b1246"></path><path d="M329.4 0L264.1 0L309.4 30Z" fill="#cc0d57" stroke="#cc0d57"></path><path d="M683.1 146L638.9 201L678.1 207Z" fill="#b3104f" stroke="#b3104f"></path><path d="M676.9 0L565.6 0L585.6 31Z" fill="#9b1246" stroke="#9b1246"></path><path d="M735.4 231L683.1 146L678.1 207Z" fill="#cc0d57" stroke="#cc0d57"></path><path d="M65.3 324L91.6 353L114.6 326Z" fill="#cc0d57" stroke="#cc0d57"></path><path d="M114.6 326L91.6 353L151.6 394Z" fill="#cc0d57" stroke="#cc0d57"></path><path d="M75.3 208L155.6 180L65.3 121Z" fill="#83123d" stroke="#83123d"></path><path d="M100.6 242L69.3 266L114.6 326Z" fill="#e5075f" stroke="#e5075f"></path><path d="M676.9 0L585.6 31L605.9 52Z" fill="#b3104f" stroke="#b3104f"></path><path d="M585.6 31L565.6 0L521.3 55Z" fill="#6c1234" stroke="#6c1234"></path><path d="M335.4 600L388.7 600L408.7 546Z" fill="#83123d" stroke="#83123d"></path><path d="M408.7 546L488 600L461 537Z" fill="#56102b" stroke="#56102b"></path><path d="M543.3 528L609.9 572L592.6 509Z" fill="#6c1234" stroke="#6c1234"></path><path d="M335.4 600L408.7 546L293.4 536Z" fill="#1c000a" stroke="#1c000a"></path><path d="M185.9 577L268.1 573L230.1 448Z" fill="#410e21" stroke="#410e21"></path><path d="M706.1 397L680.1 325L624.9 379Z" fill="#410e21" stroke="#410e21"></path><path d="M717.1 482L706.1 397L647.9 449Z" fill="#83123d" stroke="#83123d"></path><path d="M647.9 449L706.1 397L624.9 379Z" fill="#6c1234" stroke="#6c1234"></path><path d="M285.1 600L335.4 600L293.4 536Z" fill="#9b1246" stroke="#9b1246"></path><path d="M87.3 217L69.3 266L100.6 242Z" fill="#cc0d57" stroke="#cc0d57"></path><path d="M117.6 88L155.6 180L192.9 88Z" fill="#56102b" stroke="#56102b"></path><path d="M87.3 217L75.3 208L69.3 266Z" fill="#ff0066" stroke="#ff0066"></path><path d="M388.7 600L488 600L408.7 546Z" fill="#6c1234" stroke="#6c1234"></path><path d="M97.3 484L164.9 458L151.6 394Z" fill="#83123d" stroke="#83123d"></path><path d="M164.9 458L185.9 577L230.1 448Z" fill="#b3104f" stroke="#b3104f"></path><path d="M722.1 334L735.4 231L705.1 242Z" fill="#410e21" stroke="#410e21"></path><path d="M705.1 242L735.4 231L678.1 207Z" fill="#9b1246" stroke="#9b1246"></path><path d="M69.3 266L65.3 324L114.6 326Z" fill="#2c0b17" stroke="#2c0b17"></path><path d="M66.3 458L97.3 484L151.6 394Z" fill="#cc0d57" stroke="#cc0d57"></path><path d="M170.9 0L117.6 88L202.9 46Z" fill="#9b1246" stroke="#9b1246"></path><path d="M202.9 46L117.6 88L192.9 88Z" fill="#1c000a" stroke="#1c000a"></path><path d="M207.9 600L285.1 600L268.1 573Z" fill="#6c1234" stroke="#6c1234"></path><path d="M268.1 573L285.1 600L293.4 536Z" fill="#e5075f" stroke="#e5075f"></path><path d="M488 600L542.3 600L543.3 528Z" fill="#b3104f" stroke="#b3104f"></path><path d="M592.6 509L681.9 495L647.9 449Z" fill="#56102b" stroke="#56102b"></path><path d="M117.6 88L91.6 104L155.6 180Z" fill="#1c000a" stroke="#1c000a"></path><path d="M609.9 572L681.9 495L592.6 509Z" fill="#56102b" stroke="#56102b"></path><path d="M706.1 397L766.4 340L722.1 334Z" fill="#410e21" stroke="#410e21"></path><path d="M91.3 0L90.3 99L117.6 88Z" fill="#6c1234" stroke="#6c1234"></path><path d="M117.6 88L90.3 99L91.6 104Z" fill="#410e21" stroke="#410e21"></path><path d="M91.6 104L65.3 121L155.6 180Z" fill="#e5075f" stroke="#e5075f"></path><path d="M264.1 0L170.9 0L202.9 46Z" fill="#83123d" stroke="#83123d"></path><path d="M542.3 600L609.9 572L543.3 528Z" fill="#9b1246" stroke="#9b1246"></path><path d="M66.3 458L151.6 394L91.6 353Z" fill="#9b1246" stroke="#9b1246"></path><path d="M137.6 485L185.9 577L164.9 458Z" fill="#9b1246" stroke="#9b1246"></path><path d="M106.6 517L185.9 577L137.6 485Z" fill="#83123d" stroke="#83123d"></path><path d="M794.4 455L766.4 340L706.1 397Z" fill="#ff0066" stroke="#ff0066"></path><path d="M722.1 334L802.4 277L735.4 231Z" fill="#cc0d57" stroke="#cc0d57"></path><path d="M0 86L65.3 121L90.3 99Z" fill="#ff0066" stroke="#ff0066"></path><path d="M90.3 99L65.3 121L91.6 104Z" fill="#83123d" stroke="#83123d"></path><path d="M0 206L0 278L69.3 266Z" fill="#9b1246" stroke="#9b1246"></path><path d="M69.3 266L0 278L65.3 324Z" fill="#6c1234" stroke="#6c1234"></path><path d="M715.1 503L717.1 482L681.9 495Z" fill="#83123d" stroke="#83123d"></path><path d="M681.9 495L717.1 482L647.9 449Z" fill="#56102b" stroke="#56102b"></path><path d="M185.9 577L207.9 600L268.1 573Z" fill="#cc0d57" stroke="#cc0d57"></path><path d="M97.3 484L106.6 517L137.6 485Z" fill="#cc0d57" stroke="#cc0d57"></path><path d="M185.9 577L157.6 600L207.9 600Z" fill="#1c000a" stroke="#1c000a"></path><path d="M0 385L66.3 458L91.6 353Z" fill="#6c1234" stroke="#6c1234"></path><path d="M0 518L52.3 574L106.6 517Z" fill="#e5075f" stroke="#e5075f"></path><path d="M542.3 600L605.6 600L609.9 572Z" fill="#56102b" stroke="#56102b"></path><path d="M700.1 600L715.1 503L681.9 495Z" fill="#2c0b17" stroke="#2c0b17"></path><path d="M605.6 600L605.9 600L609.9 572Z" fill="#56102b" stroke="#56102b"></path><path d="M700.1 600L681.9 495L609.9 572Z" fill="#2c0b17" stroke="#2c0b17"></path><path d="M851.7 386L799.7 331L766.4 340Z" fill="#2c0b17" stroke="#2c0b17"></path><path d="M647.9 90L676.9 0L605.9 52Z" fill="#cc0d57" stroke="#cc0d57"></path><path d="M740.1 60L676.9 0L647.9 90Z" fill="#cc0d57" stroke="#cc0d57"></path><path d="M740.1 60L647.9 90L683.1 146Z" fill="#410e21" stroke="#410e21"></path><path d="M740.1 60L683.1 146L794.4 157Z" fill="#cc0d57" stroke="#cc0d57"></path><path d="M799.7 331L802.4 277L766.4 340Z" fill="#b3104f" stroke="#b3104f"></path><path d="M766.4 340L802.4 277L722.1 334Z" fill="#9b1246" stroke="#9b1246"></path><path d="M0 206L69.3 266L75.3 208Z" fill="#b3104f" stroke="#b3104f"></path><path d="M65.3 324L0 385L91.6 353Z" fill="#2c0b17" stroke="#2c0b17"></path><path d="M794.4 455L706.1 397L717.1 482Z" fill="#1c000a" stroke="#1c000a"></path><path d="M794.4 157L683.1 146L735.4 231Z" fill="#1c000a" stroke="#1c000a"></path><path d="M63.3 600L157.6 600L106.6 517Z" fill="#9b1246" stroke="#9b1246"></path><path d="M106.6 517L157.6 600L185.9 577Z" fill="#56102b" stroke="#56102b"></path><path d="M0 185L0 206L75.3 208Z" fill="#2c0b17" stroke="#2c0b17"></path><path d="M740.1 60L701.1 0L676.9 0Z" fill="#6c1234" stroke="#6c1234"></path><path d="M802.4 277L794.4 157L735.4 231Z" fill="#83123d" stroke="#83123d"></path><path d="M65.3 121L0 185L75.3 208Z" fill="#ff0066" stroke="#ff0066"></path><path d="M0 86L0 185L65.3 121Z" fill="#6c1234" stroke="#6c1234"></path><path d="M740.4 574L742.4 509L715.1 503Z" fill="#1c000a" stroke="#1c000a"></path><path d="M715.1 503L742.4 509L717.1 482Z" fill="#410e21" stroke="#410e21"></path><path d="M806.4 91L747.4 51L740.1 60Z" fill="#56102b" stroke="#56102b"></path><path d="M740.1 60L747.4 51L701.1 0Z" fill="#e5075f" stroke="#e5075f"></path><path d="M170.9 0L93.6 0L117.6 88Z" fill="#410e21" stroke="#410e21"></path><path d="M93.6 0L91.3 0L117.6 88Z" fill="#9b1246" stroke="#9b1246"></path><path d="M0 278L0 385L65.3 324Z" fill="#83123d" stroke="#83123d"></path><path d="M0 518L106.6 517L97.3 484Z" fill="#6c1234" stroke="#6c1234"></path><path d="M742.4 509L794.4 455L717.1 482Z" fill="#83123d" stroke="#83123d"></path><path d="M860.7 213L794.4 157L802.4 277Z" fill="#e5075f" stroke="#e5075f"></path><path d="M0 385L0 440L66.3 458Z" fill="#56102b" stroke="#56102b"></path><path d="M0 440L0 451L66.3 458Z" fill="#ff0066" stroke="#ff0066"></path><path d="M605.9 600L700.1 600L609.9 572Z" fill="#b3104f" stroke="#b3104f"></path><path d="M742.4 509L819.7 464L794.4 455Z" fill="#9b1246" stroke="#9b1246"></path><path d="M827.7 0L745.4 0L747.4 51Z" fill="#6c1234" stroke="#6c1234"></path><path d="M747.4 51L745.4 0L701.1 0Z" fill="#83123d" stroke="#83123d"></path><path d="M814.7 115L805.7 99L794.4 157Z" fill="#9b1246" stroke="#9b1246"></path><path d="M794.4 157L805.7 99L740.1 60Z" fill="#56102b" stroke="#56102b"></path><path d="M865.7 188L814.7 115L794.4 157Z" fill="#ff0066" stroke="#ff0066"></path><path d="M862.7 319L802.4 277L799.7 331Z" fill="#410e21" stroke="#410e21"></path><path d="M0 58L0 86L90.3 99Z" fill="#cc0d57" stroke="#cc0d57"></path><path d="M814.7 115L806.4 91L805.7 99Z" fill="#ff0066" stroke="#ff0066"></path><path d="M805.7 99L806.4 91L740.1 60Z" fill="#9b1246" stroke="#9b1246"></path><path d="M700.1 600L740.4 574L715.1 503Z" fill="#ff0066" stroke="#ff0066"></path><path d="M91.3 0L0 58L90.3 99Z" fill="#ff0066" stroke="#ff0066"></path><path d="M800.7 579L819.7 464L742.4 509Z" fill="#e5075f" stroke="#e5075f"></path><path d="M794.4 455L851.7 386L766.4 340Z" fill="#b3104f" stroke="#b3104f"></path><path d="M0 518L97.3 484L66.3 458Z" fill="#6c1234" stroke="#6c1234"></path><path d="M851.7 386L862.7 319L799.7 331Z" fill="#83123d" stroke="#83123d"></path><path d="M819.7 464L851.7 386L794.4 455Z" fill="#9b1246" stroke="#9b1246"></path><path d="M900 259L860.7 213L802.4 277Z" fill="#83123d" stroke="#83123d"></path><path d="M900 92L827.7 0L806.4 91Z" fill="#9b1246" stroke="#9b1246"></path><path d="M0 600L63.3 600L52.3 574Z" fill="#b3104f" stroke="#b3104f"></path><path d="M52.3 574L63.3 600L106.6 517Z" fill="#e5075f" stroke="#e5075f"></path><path d="M0 451L0 518L66.3 458Z" fill="#56102b" stroke="#56102b"></path><path d="M900 259L865.7 188L860.7 213Z" fill="#ff0066" stroke="#ff0066"></path><path d="M860.7 213L865.7 188L794.4 157Z" fill="#b3104f" stroke="#b3104f"></path><path d="M700.1 600L748.4 600L740.4 574Z" fill="#9b1246" stroke="#9b1246"></path><path d="M740.4 574L800.7 579L742.4 509Z" fill="#410e21" stroke="#410e21"></path><path d="M91.3 0L0 0L0 58Z" fill="#9b1246" stroke="#9b1246"></path><path d="M900 360L900 272L862.7 319Z" fill="#e5075f" stroke="#e5075f"></path><path d="M862.7 319L900 272L802.4 277Z" fill="#2c0b17" stroke="#2c0b17"></path><path d="M900 360L862.7 319L851.7 386Z" fill="#6c1234" stroke="#6c1234"></path><path d="M900 272L900 259L802.4 277Z" fill="#e5075f" stroke="#e5075f"></path><path d="M748.4 600L800.7 579L740.4 574Z" fill="#cc0d57" stroke="#cc0d57"></path><path d="M900 431L900 360L851.7 386Z" fill="#ff0066" stroke="#ff0066"></path><path d="M900 431L851.7 386L819.7 464Z" fill="#b3104f" stroke="#b3104f"></path><path d="M900 159L814.7 115L865.7 188Z" fill="#6c1234" stroke="#6c1234"></path><path d="M900 92L806.4 91L814.7 115Z" fill="#410e21" stroke="#410e21"></path><path d="M806.4 91L827.7 0L747.4 51Z" fill="#9b1246" stroke="#9b1246"></path><path d="M900 259L900 159L865.7 188Z" fill="#410e21" stroke="#410e21"></path><path d="M0 518L0 600L52.3 574Z" fill="#83123d" stroke="#83123d"></path><path d="M900 453L900 431L819.7 464Z" fill="#cc0d57" stroke="#cc0d57"></path><path d="M900 558L900 453L819.7 464Z" fill="#ff0066" stroke="#ff0066"></path><path d="M900 159L900 96L814.7 115Z" fill="#e5075f" stroke="#e5075f"></path><path d="M900 96L900 92L814.7 115Z" fill="#e5075f" stroke="#e5075f"></path><path d="M748.4 600L828.7 600L800.7 579Z" fill="#410e21" stroke="#410e21"></path><path d="M800.7 579L900 558L819.7 464Z" fill="#410e21" stroke="#410e21"></path><path d="M900 92L900 0L827.7 0Z" fill="#b3104f" stroke="#b3104f"></path><path d="M828.7 600L900 558L800.7 579Z" fill="#cc0d57" stroke="#cc0d57"></path><path d="M828.7 600L900 600L900 558Z" fill="#b3104f" stroke="#b3104f"></path></g></svg>